<svg width="381" height="101" viewBox="0 0 381 101" fill="none" xmlns="http://www.w3.org/2000/svg">
<mask id="path-1-inside-1_21296_410422" fill="white">
<path fill-rule="evenodd" clip-rule="evenodd" d="M8.125 0.930664C3.70672 0.930664 0.125 4.51238 0.125 8.93066V92.9307C0.125 97.3489 3.70672 100.931 8.125 100.931H120.125C122.803 100.931 125.173 99.6152 126.625 97.5954C128.077 99.6152 130.447 100.931 133.125 100.931H372.125C376.543 100.931 380.125 97.3489 380.125 92.9307V8.93066C380.125 4.51239 376.543 0.930664 372.125 0.930664H133.125C130.447 0.930664 128.077 2.24608 126.625 4.26594C125.173 2.24608 122.803 0.930664 120.125 0.930664H8.125Z"/>
</mask>
<path fill-rule="evenodd" clip-rule="evenodd" d="M8.125 0.930664C3.70672 0.930664 0.125 4.51238 0.125 8.93066V92.9307C0.125 97.3489 3.70672 100.931 8.125 100.931H120.125C122.803 100.931 125.173 99.6152 126.625 97.5954C128.077 99.6152 130.447 100.931 133.125 100.931H372.125C376.543 100.931 380.125 97.3489 380.125 92.9307V8.93066C380.125 4.51239 376.543 0.930664 372.125 0.930664H133.125C130.447 0.930664 128.077 2.24608 126.625 4.26594C125.173 2.24608 122.803 0.930664 120.125 0.930664H8.125Z" fill="#EDFBFF"/>
<path d="M126.625 97.5954L127.437 97.0117L126.625 95.8823L125.813 97.0117L126.625 97.5954ZM126.625 4.26594L125.813 4.84967L126.625 5.97907L127.437 4.84967L126.625 4.26594ZM1.125 8.93066C1.125 5.06467 4.25901 1.93066 8.125 1.93066V-0.0693359C3.15444 -0.0693359 -0.875 3.9601 -0.875 8.93066H1.125ZM1.125 92.9307V8.93066H-0.875V92.9307H1.125ZM8.125 99.9307C4.25901 99.9307 1.125 96.7967 1.125 92.9307H-0.875C-0.875 97.9012 3.15444 101.931 8.125 101.931V99.9307ZM120.125 99.9307H8.125V101.931H120.125V99.9307ZM125.813 97.0117C124.541 98.7814 122.467 99.9307 120.125 99.9307V101.931C123.138 101.931 125.805 100.449 127.437 98.1791L125.813 97.0117ZM133.125 99.9307C130.783 99.9307 128.709 98.7814 127.437 97.0117L125.813 98.1791C127.445 100.449 130.112 101.931 133.125 101.931V99.9307ZM372.125 99.9307H133.125V101.931H372.125V99.9307ZM379.125 92.9307C379.125 96.7967 375.991 99.9307 372.125 99.9307V101.931C377.096 101.931 381.125 97.9012 381.125 92.9307H379.125ZM379.125 8.93066V92.9307H381.125V8.93066H379.125ZM372.125 1.93066C375.991 1.93066 379.125 5.06467 379.125 8.93066H381.125C381.125 3.9601 377.096 -0.0693359 372.125 -0.0693359V1.93066ZM133.125 1.93066H372.125V-0.0693359H133.125V1.93066ZM127.437 4.84967C128.709 3.07992 130.783 1.93066 133.125 1.93066V-0.0693359C130.112 -0.0693359 127.445 1.41225 125.813 3.68221L127.437 4.84967ZM120.125 1.93066C122.467 1.93066 124.541 3.07992 125.813 4.84967L127.437 3.68222C125.805 1.41225 123.138 -0.0693359 120.125 -0.0693359V1.93066ZM8.125 1.93066H120.125V-0.0693359H8.125V1.93066Z" fill="#9AE7FF" mask="url(#path-1-inside-1_21296_410422)"/>
<rect x="126.125" y="22" width="1" height="4" rx="0.5" fill="#9AE7FF"/>
<rect x="126.125" y="28" width="1" height="4" rx="0.5" fill="#9AE7FF"/>
<rect x="126.125" y="34" width="1" height="4" rx="0.5" fill="#9AE7FF"/>
<rect x="126.125" y="40" width="1" height="4" rx="0.5" fill="#9AE7FF"/>
<rect x="126.125" y="46" width="1" height="4" rx="0.5" fill="#9AE7FF"/>
<rect x="126.125" y="52" width="1" height="4" rx="0.5" fill="#9AE7FF"/>
<rect x="126.125" y="58" width="1" height="4" rx="0.5" fill="#9AE7FF"/>
<rect x="126.125" y="64" width="1" height="4" rx="0.5" fill="#9AE7FF"/>
<rect x="126.125" y="70" width="1" height="4" rx="0.5" fill="#9AE7FF"/>
<rect x="126.125" y="76" width="1" height="4" rx="0.5" fill="#9AE7FF"/>
</svg>
