<svg width="259" height="100" viewBox="0 0 259 100" fill="none" xmlns="http://www.w3.org/2000/svg">
<mask id="path-1-inside-1_21296_410421" fill="white">
<path fill-rule="evenodd" clip-rule="evenodd" d="M8 0C3.58172 0 0 3.58172 0 8V92C0 96.4183 3.58172 100 8 100H96C99.4369 100 102.368 97.8326 103.5 94.7901C104.632 97.8326 107.563 100 111 100H251C255.418 100 259 96.4183 259 92V8C259 3.58172 255.418 0 251 0H111C107.563 0 104.632 2.16736 103.5 5.20989C102.368 2.16736 99.437 0 96 0H8Z"/>
</mask>
<path fill-rule="evenodd" clip-rule="evenodd" d="M8 0C3.58172 0 0 3.58172 0 8V92C0 96.4183 3.58172 100 8 100H96C99.4369 100 102.368 97.8326 103.5 94.7901C104.632 97.8326 107.563 100 111 100H251C255.418 100 259 96.4183 259 92V8C259 3.58172 255.418 0 251 0H111C107.563 0 104.632 2.16736 103.5 5.20989C102.368 2.16736 99.437 0 96 0H8Z" fill="#EDFBFF"/>
<path d="M103.5 94.7901L104.437 94.4413L103.5 91.9231L102.563 94.4413L103.5 94.7901ZM103.5 5.20989L102.563 5.55868L103.5 8.07691L104.437 5.55868L103.5 5.20989ZM1 8C1 4.13401 4.13401 1 8 1V-1C3.02944 -1 -1 3.02944 -1 8H1ZM1 92V8H-1V92H1ZM8 99C4.13401 99 1 95.866 1 92H-1C-1 96.9706 3.02944 101 8 101V99ZM96 99H8V101H96V99ZM102.563 94.4413C101.571 97.1051 99.0058 99 96 99V101C99.8681 101 103.164 98.5602 104.437 95.1389L102.563 94.4413ZM111 99C107.994 99 105.429 97.1051 104.437 94.4413L102.563 95.1389C103.836 98.5602 107.132 101 111 101V99ZM251 99H111V101H251V99ZM258 92C258 95.866 254.866 99 251 99V101C255.971 101 260 96.9706 260 92H258ZM258 8V92H260V8H258ZM251 1C254.866 1 258 4.13401 258 8H260C260 3.02944 255.971 -1 251 -1V1ZM111 1H251V-1H111V1ZM104.437 5.55868C105.429 2.89493 107.994 1 111 1V-1C107.132 -1 103.836 1.43979 102.563 4.86109L104.437 5.55868ZM96 1C99.0058 1 101.571 2.89493 102.563 5.55868L104.437 4.86109C103.164 1.43979 99.8681 -1 96 -1V1ZM8 1H96V-1H8V1Z" fill="#9AE7FF" mask="url(#path-1-inside-1_21296_410421)"/>
<rect x="103.125" y="21" width="1" height="4" rx="0.5" fill="#9AE7FF"/>
<rect x="103.125" y="27" width="1" height="4" rx="0.5" fill="#9AE7FF"/>
<rect x="103.125" y="33" width="1" height="4" rx="0.5" fill="#9AE7FF"/>
<rect x="103.125" y="39" width="1" height="4" rx="0.5" fill="#9AE7FF"/>
<rect x="103.125" y="45" width="1" height="4" rx="0.5" fill="#9AE7FF"/>
<rect x="103.125" y="51" width="1" height="4" rx="0.5" fill="#9AE7FF"/>
<rect x="103.125" y="57" width="1" height="4" rx="0.5" fill="#9AE7FF"/>
<rect x="103.125" y="63" width="1" height="4" rx="0.5" fill="#9AE7FF"/>
<rect x="103.125" y="69" width="1" height="4" rx="0.5" fill="#9AE7FF"/>
<rect x="103.125" y="75" width="1" height="4" rx="0.5" fill="#9AE7FF"/>
</svg>
